<svg width="16" height="17" viewBox="0 0 16 17" fill="none" xmlns="http://www.w3.org/2000/svg">
<path d="M13.8538 8.85375L9.35375 13.3538C9.25993 13.4476 9.13268 13.5003 9 13.5003C8.86732 13.5003 8.74007 13.4476 8.64625 13.3538C8.55243 13.2599 8.49972 13.1327 8.49972 13C8.49972 12.8673 8.55243 12.7401 8.64625 12.6463L12.2931 9H2.5C2.36739 9 2.24021 8.94733 2.14645 8.85356C2.05268 8.75979 2 8.63261 2 8.5C2 8.36739 2.05268 8.24022 2.14645 8.14645C2.24021 8.05268 2.36739 8 2.5 8H12.2931L8.64625 4.35375C8.55243 4.25993 8.49972 4.13269 8.49972 4C8.49972 3.86732 8.55243 3.74007 8.64625 3.64625C8.74007 3.55243 8.86732 3.49973 9 3.49973C9.13268 3.49973 9.25993 3.55243 9.35375 3.64625L13.8538 8.14625C13.9002 8.19269 13.9371 8.24783 13.9623 8.30853C13.9874 8.36923 14.0004 8.4343 14.0004 8.5C14.0004 8.56571 13.9874 8.63077 13.9623 8.69147C13.9371 8.75217 13.9002 8.80732 13.8538 8.85375Z" fill="#8B4513"/>
</svg>
