<svg width="20" height="21" viewBox="0 0 20 21" fill="none" xmlns="http://www.w3.org/2000/svg">
<path fill-rule="evenodd" clip-rule="evenodd" d="M7.09322 4.19164C7.21912 4.08397 7.38262 4.03069 7.54778 4.0435C7.71295 4.05631 7.86627 4.13417 7.97406 4.25998L12.9741 10.0933C13.0711 10.2066 13.1245 10.3508 13.1245 10.5C13.1245 10.6491 13.0711 10.7934 12.9741 10.9066L7.97406 16.74C7.86449 16.8596 7.71268 16.932 7.55074 16.9417C7.38879 16.9515 7.22939 16.8979 7.10624 16.7923C6.98309 16.6867 6.90583 16.5373 6.89081 16.3758C6.87578 16.2142 6.92416 16.0532 7.02572 15.9266L11.6766 10.5L7.02572 5.07331C6.91785 4.94762 6.86428 4.78425 6.87678 4.6191C6.88928 4.45394 6.96683 4.3005 7.09239 4.19248L7.09322 4.19164Z" fill="#D8C5B7"/>
</svg>
