<svg width="12" height="12" viewBox="0 0 12 12" fill="none" xmlns="http://www.w3.org/2000/svg">
<path fill-rule="evenodd" clip-rule="evenodd" d="M2.21503 4.25597C2.24709 4.21856 2.28621 4.18783 2.33016 4.16555C2.3741 4.14326 2.42201 4.12986 2.47113 4.12609C2.52026 4.12233 2.56965 4.12829 2.61647 4.14363C2.6633 4.15896 2.70664 4.18337 2.74403 4.21547L6.00003 7.00597L9.25603 4.21547C9.33194 4.15453 9.42857 4.1255 9.5255 4.13452C9.62242 4.14353 9.71205 4.18989 9.77542 4.26378C9.83879 4.33767 9.87095 4.43331 9.86509 4.53048C9.85923 4.62764 9.81582 4.71873 9.74403 4.78447L6.24403 7.78447C6.17607 7.8427 6.08952 7.87471 6.00003 7.87471C5.91053 7.87471 5.82399 7.8427 5.75603 7.78447L2.25603 4.78447C2.18062 4.71973 2.134 4.6277 2.1264 4.5286C2.11881 4.4295 2.15086 4.33144 2.21553 4.25597H2.21503Z" fill="white"/>
</svg>
