<svg width="20" height="20" viewBox="0 0 20 20" fill="none" xmlns="http://www.w3.org/2000/svg">
<path fill-rule="evenodd" clip-rule="evenodd" d="M9.59333 7.02491C9.70659 6.92786 9.85083 6.87451 9.99999 6.87451C10.1492 6.87451 10.2934 6.92786 10.4067 7.02491L16.24 12.0249C16.3024 12.0783 16.3536 12.1435 16.3908 12.2167C16.428 12.2899 16.4504 12.3697 16.4568 12.4516C16.4631 12.5335 16.4533 12.6158 16.4278 12.6938C16.4023 12.7719 16.3617 12.8442 16.3083 12.9066C16.2549 12.969 16.1898 13.0202 16.1165 13.0574C16.0433 13.0946 15.9635 13.117 15.8816 13.1233C15.7998 13.1297 15.7175 13.1198 15.6394 13.0944C15.5613 13.0689 15.489 13.0283 15.4267 12.9749L9.99999 8.32241L4.57333 12.9732C4.51153 13.0298 4.43899 13.0734 4.36002 13.1014C4.28105 13.1294 4.19725 13.1412 4.11362 13.1362C4.02998 13.1311 3.94821 13.1093 3.87317 13.0721C3.79814 13.0348 3.73136 12.9828 3.67681 12.9192C3.62227 12.8556 3.58106 12.7817 3.55566 12.7018C3.53025 12.622 3.52116 12.5379 3.52892 12.4544C3.53668 12.371 3.56113 12.29 3.60083 12.2162C3.64052 12.1424 3.69465 12.0774 3.75999 12.0249L9.59333 7.02491Z" fill="#8B4513"/>
</svg>
