<svg width="20" height="20" viewBox="0 0 20 20" fill="none" xmlns="http://www.w3.org/2000/svg">
<path fill-rule="evenodd" clip-rule="evenodd" d="M7.09334 3.69176C7.21924 3.58409 7.38274 3.53081 7.5479 3.54362C7.71307 3.55643 7.86639 3.6343 7.97418 3.7601L12.9742 9.59343C13.0712 9.7067 13.1246 9.85094 13.1246 10.0001C13.1246 10.1493 13.0712 10.2935 12.9742 10.4068L7.97418 16.2401C7.86461 16.3597 7.7128 16.4321 7.55086 16.4419C7.38891 16.4516 7.22951 16.398 7.10636 16.2924C6.98321 16.1868 6.90596 16.0374 6.89093 15.8759C6.8759 15.7143 6.92429 15.5533 7.02584 15.4268L11.6767 10.0001L7.02584 4.57343C6.91797 4.44774 6.86441 4.28438 6.87691 4.11922C6.88941 3.95406 6.96695 3.80062 7.09251 3.6926L7.09334 3.69176Z" fill="white"/>
</svg>
