<svg width="12" height="12" viewBox="0 0 12 12" fill="none" xmlns="http://www.w3.org/2000/svg">
<path fill-rule="evenodd" clip-rule="evenodd" d="M2.215 4.25597C2.24706 4.21856 2.28618 4.18783 2.33013 4.16555C2.37407 4.14326 2.42198 4.12986 2.4711 4.12609C2.52023 4.12233 2.56962 4.12829 2.61644 4.14363C2.66327 4.15896 2.70661 4.18337 2.744 4.21547L6 7.00597L9.256 4.21547C9.33191 4.15453 9.42854 4.1255 9.52547 4.13452C9.62239 4.14353 9.71202 4.18989 9.77539 4.26378C9.83876 4.33767 9.87092 4.43331 9.86506 4.53048C9.8592 4.62764 9.81579 4.71873 9.744 4.78447L6.244 7.78447C6.17604 7.8427 6.08949 7.87471 6 7.87471C5.9105 7.87471 5.82396 7.8427 5.756 7.78447L2.256 4.78447C2.18059 4.71973 2.13397 4.6277 2.12637 4.5286C2.11878 4.4295 2.15083 4.33144 2.2155 4.25597H2.215Z" fill="black"/>
</svg>
