<svg width="20" height="20" viewBox="0 0 20 20" fill="none" xmlns="http://www.w3.org/2000/svg">
<path fill-rule="evenodd" clip-rule="evenodd" d="M12.9067 3.69177C12.969 3.74521 13.0202 3.81041 13.0574 3.88366C13.0945 3.9569 13.1168 4.03674 13.1231 4.11862C13.1294 4.2005 13.1195 4.28281 13.0939 4.36085C13.0683 4.43889 13.0276 4.51113 12.9742 4.57344L8.32332 10.0001L12.9742 15.4268C13.0307 15.4886 13.0743 15.5611 13.1023 15.6401C13.1303 15.719 13.1421 15.8028 13.1371 15.8865C13.132 15.9701 13.1102 16.0519 13.073 16.1269C13.0357 16.202 12.9837 16.2687 12.9201 16.3233C12.8565 16.3778 12.7826 16.419 12.7027 16.4444C12.6229 16.4698 12.5388 16.4789 12.4553 16.4712C12.3719 16.4634 12.2909 16.439 12.2171 16.3993C12.1433 16.3596 12.0783 16.3054 12.0258 16.2401L7.02582 10.4068C6.92877 10.2935 6.87543 10.1493 6.87543 10.0001C6.87543 9.85095 6.92877 9.7067 7.02582 9.59344L12.0258 3.76011C12.1337 3.63443 12.2871 3.55672 12.4523 3.54406C12.6174 3.53141 12.7809 3.58483 12.9067 3.69261V3.69177Z" fill="#D8C5B7"/>
</svg>
