<svg width="20" height="20" viewBox="0 0 20 20" fill="none" xmlns="http://www.w3.org/2000/svg">
<path d="M10.8566 1.66675C11.7941 1.66925 12.27 1.67425 12.6808 1.68591L12.8425 1.69175C13.0291 1.69841 13.2133 1.70675 13.4358 1.71675C14.3225 1.75841 14.9275 1.89841 15.4583 2.10425C16.0083 2.31591 16.4716 2.60258 16.935 3.06508C17.3587 3.48166 17.6866 3.98557 17.8958 4.54175C18.1016 5.07258 18.2416 5.67758 18.2833 6.56508C18.2933 6.78675 18.3016 6.97092 18.3083 7.15842L18.3133 7.32008C18.3258 7.73008 18.3308 8.20591 18.3325 9.14341L18.3333 9.76508V10.8567C18.3353 11.4646 18.3289 12.0724 18.3141 12.6801L18.3091 12.8417C18.3025 13.0292 18.2941 13.2134 18.2841 13.4351C18.2425 14.3226 18.1008 14.9267 17.8958 15.4584C17.6872 16.0149 17.3592 16.5189 16.935 16.9351C16.5183 17.3587 16.0144 17.6865 15.4583 17.8959C14.9275 18.1017 14.3225 18.2417 13.4358 18.2834C13.238 18.2927 13.0403 18.3011 12.8425 18.3084L12.6808 18.3134C12.27 18.3251 11.7941 18.3309 10.8566 18.3326L10.235 18.3334H9.14412C8.536 18.3355 7.92789 18.3291 7.31995 18.3142L7.15829 18.3092C6.96046 18.3018 6.76268 18.2931 6.56495 18.2834C5.67829 18.2417 5.07329 18.1017 4.54162 17.8959C3.98551 17.6871 3.4818 17.3591 3.06579 16.9351C2.64166 16.5187 2.31347 16.0147 2.10412 15.4584C1.89829 14.9276 1.75829 14.3226 1.71662 13.4351C1.70733 13.2373 1.699 13.0396 1.69162 12.8417L1.68745 12.6801C1.6721 12.0724 1.66515 11.4646 1.66662 10.8567V9.14341C1.66429 8.53558 1.6704 7.92775 1.68495 7.32008L1.69079 7.15842C1.69745 6.97092 1.70579 6.78675 1.71579 6.56508C1.75745 5.67758 1.89745 5.07341 2.10329 4.54175C2.31255 3.985 2.64139 3.48093 3.06662 3.06508C3.48253 2.64131 3.98591 2.3134 4.54162 2.10425C5.07329 1.89841 5.67745 1.75841 6.56495 1.71675C6.78662 1.70675 6.97162 1.69841 7.15829 1.69175L7.31995 1.68675C7.92761 1.67194 8.53545 1.66555 9.14329 1.66758L10.8566 1.66675ZM9.99995 5.83342C8.89488 5.83342 7.83508 6.2724 7.05367 7.0538C6.27227 7.83521 5.83329 8.89501 5.83329 10.0001C5.83329 11.1052 6.27227 12.165 7.05367 12.9464C7.83508 13.7278 8.89488 14.1667 9.99995 14.1667C11.105 14.1667 12.1648 13.7278 12.9462 12.9464C13.7276 12.165 14.1666 11.1052 14.1666 10.0001C14.1666 8.89501 13.7276 7.83521 12.9462 7.0538C12.1648 6.2724 11.105 5.83342 9.99995 5.83342ZM9.99995 7.50008C10.3283 7.50003 10.6534 7.56464 10.9567 7.69022C11.26 7.81581 11.5357 7.99991 11.7678 8.23202C12 8.46413 12.1842 8.7397 12.3099 9.04299C12.4356 9.34628 12.5003 9.67136 12.5004 9.99967C12.5004 10.328 12.4358 10.6531 12.3102 10.9564C12.1846 11.2597 12.0005 11.5354 11.7684 11.7676C11.5363 11.9997 11.2608 12.1839 10.9575 12.3096C10.6542 12.4353 10.3291 12.5 10.0008 12.5001C9.33774 12.5001 8.70186 12.2367 8.23302 11.7678C7.76418 11.299 7.50079 10.6631 7.50079 10.0001C7.50079 9.33704 7.76418 8.70116 8.23302 8.23231C8.70186 7.76347 9.33774 7.50008 10.0008 7.50008M14.3758 4.58341C14.0995 4.58341 13.8346 4.69316 13.6392 4.88851C13.4439 5.08386 13.3341 5.34881 13.3341 5.62508C13.3341 5.90135 13.4439 6.1663 13.6392 6.36165C13.8346 6.557 14.0995 6.66675 14.3758 6.66675C14.6521 6.66675 14.917 6.557 15.1124 6.36165C15.3077 6.1663 15.4175 5.90135 15.4175 5.62508C15.4175 5.34881 15.3077 5.08386 15.1124 4.88851C14.917 4.69316 14.6521 4.58341 14.3758 4.58341Z" fill="#353333"/>
</svg>
