<svg width="72" height="72" viewBox="0 0 72 72" fill="none" xmlns="http://www.w3.org/2000/svg">
<path d="M54 54C55.1935 54 56.3381 53.5259 57.182 52.682C58.0259 51.8381 58.5 50.6935 58.5 49.5V38.511C58.5 37.3175 58.0259 36.1729 57.182 35.329C56.3381 34.4851 55.1935 34.011 54 34.011H47.754C47.754 32.43 47.847 30.849 48.033 29.268C48.312 27.594 48.777 26.106 49.428 24.804C50.079 23.502 50.9175 22.4775 51.9435 21.7305C52.9635 20.8935 54.2655 20.475 55.8495 20.475V13.5C53.2455 13.5 50.9655 14.058 49.0095 15.174C47.0671 16.2759 45.3982 17.8018 44.127 19.638C42.8473 21.6592 41.905 23.8751 41.337 26.199C40.7627 28.7628 40.4819 31.3837 40.5 34.011V49.5C40.5 50.6935 40.9741 51.8381 41.818 52.682C42.662 53.5259 43.8065 54 45 54H54ZM27 54C28.1935 54 29.3381 53.5259 30.182 52.682C31.0259 51.8381 31.5 50.6935 31.5 49.5V38.511C31.5 37.3175 31.0259 36.1729 30.182 35.329C29.3381 34.4851 28.1935 34.011 27 34.011H20.754C20.754 32.43 20.847 30.849 21.033 29.268C21.315 27.594 21.78 26.106 22.428 24.804C23.079 23.502 23.9175 22.4775 24.9435 21.7305C25.9635 20.8935 27.2655 20.475 28.8495 20.475V13.5C26.2455 13.5 23.9655 14.058 22.0095 15.174C20.0671 16.2759 18.3982 17.8018 17.127 19.638C15.8473 21.6592 14.905 23.8751 14.337 26.199C13.7628 28.7628 13.4819 31.3837 13.5 34.011V49.5C13.5 50.6935 13.9741 51.8381 14.818 52.682C15.662 53.5259 16.8066 54 18 54H27Z" fill="#0A0117"/>
</svg>
